<svg width="23" height="23" viewBox="0 0 23 23" fill="none" xmlns="http://www.w3.org/2000/svg">
    <circle cx="11.5" cy="11.5" r="11.5" fill="white"/>
    <path d="M11.7969 16.1714C11.4555 16.6704 10.924 16.977 10.3492 17.0075C9.77452 17.0383 9.21787 16.7888 8.83278 16.3282L5.38177 12.2039C4.83329 11.5489 4.88201 10.5391 5.49029 9.94841C6.09916 9.35775 7.03623 9.41053 7.58471 10.0659L10.0263 12.984C10.0625 13.0274 10.115 13.0507 10.169 13.0478C10.2232 13.045 10.2728 13.0158 10.3052 12.9693L15.3237 5.63908C15.8095 4.92902 16.7378 4.7779 17.3974 5.30133C18.0565 5.82476 18.1965 6.82449 17.7105 7.53423L11.7969 16.1714Z"
          fill="#1790FF"/>
</svg>
